SplineFontDB: 3.0
FontName: YawkeyWay
FullName: Yawkey Way
FamilyName: Yawkey Way
Weight: Regular
Copyright: 
Version: 2015-08-06
ItalicAngle: 0
UnderlinePosition: -113
UnderlineWidth: 20
Ascent: 800
Descent: 200
InvalidEm: 0
sfntRevision: 0x00010000
LayerCount: 2
Layer: 0 0 "Back" 1
Layer: 1 0 "Fore" 0
XUID: [1021 270 -1463357204 394131]
FSType: 4
OS2Version: 3
OS2_WeightWidthSlopeOnly: 0
OS2_UseTypoMetrics: 1
CreationTime: 1438948369
ModificationTime: 1453760190
PfmFamily: 81
TTFWeight: 400
TTFWidth: 5
LineGap: 0
VLineGap: 0
Panose: 0 0 0 0 0 0 0 0 0 0
OS2TypoAscent: 800
OS2TypoAOffset: 0
OS2TypoDescent: -200
OS2TypoDOffset: 0
OS2TypoLinegap: 0
OS2WinAscent: 802
OS2WinAOffset: 0
OS2WinDescent: 20
OS2WinDOffset: 0
HheadAscent: 800
HheadAOffset: 0
HheadDescent: -200
HheadDOffset: 0
OS2SubXSize: 700
OS2SubYSize: 650
OS2SubXOff: 0
OS2SubYOff: 140
OS2SupXSize: 700
OS2SupYSize: 650
OS2SupXOff: 0
OS2SupYOff: 477
OS2StrikeYSize: 50
OS2StrikeYPos: 250
OS2CapHeight: 0
OS2XHeight: 0
OS2Vendor: 'pyrs'
OS2CodePages: 00000001.00000000
OS2UnicodeRanges: 00000001.00000000.00000000.00000000
Lookup: 258 0 0 "'kern' Horizontal Kerning lookup 0" { "'kern' Horizontal Kerning lookup 0 subtable"  } ['kern' ('DFLT' <'dflt' > ) ]
MarkAttachClasses: 1
DEI: 91125
TtTable: prep
PUSHW_1
 0
CALL
SVTCA[y-axis]
PUSHW_3
 1
 3
 2
CALL
SVTCA[x-axis]
PUSHW_3
 4
 3
 2
CALL
SVTCA[x-axis]
PUSHW_8
 4
 32
 28
 22
 17
 10
 0
 8
CALL
PUSHW_8
 5
 43
 35
 31
 17
 10
 0
 8
CALL
PUSHW_8
 6
 35
 28
 22
 17
 10
 0
 8
CALL
SVTCA[y-axis]
PUSHW_8
 1
 33
 28
 22
 17
 10
 0
 8
CALL
PUSHW_8
 2
 54
 44
 31
 25
 15
 0
 8
CALL
PUSHW_8
 3
 36
 28
 22
 17
 10
 0
 8
CALL
SVTCA[y-axis]
PUSHW_3
 7
 2
 7
CALL
PUSHW_1
 0
DUP
RCVT
RDTG
ROUND[Black]
RTG
WCVTP
EndTTInstrs
TtTable: fpgm
PUSHW_1
 0
FDEF
MPPEM
PUSHW_1
 9
LT
IF
PUSHB_2
 1
 1
INSTCTRL
EIF
PUSHW_1
 511
SCANCTRL
PUSHW_1
 68
SCVTCI
PUSHW_2
 9
 3
SDS
SDB
ENDF
PUSHW_1
 1
FDEF
DUP
DUP
RCVT
ROUND[Black]
WCVTP
PUSHB_1
 1
ADD
ENDF
PUSHW_1
 2
FDEF
PUSHW_1
 1
LOOPCALL
POP
ENDF

StartChar: D
Encoding: 68 68 4
Width: 598
Flags: HW
LayerCount: 2
Back
Fore
SplineSet
590 414 m 1
 506 328 572 233 519 98 c 0
 503 56 394 -47 281 25 c 0
 148 110 104 41 47 15 c 1
 77 81 156 315 37 412 c 1
 72 466 152 549 72 739 c 1
 136 756 165 700 215 717 c 0
 285 741 439 839 507 684 c 0
 580 518 510 444 590 414 c 1
 590 414 l 1
351 169 m 1
 453 219 446 392 349 413 c 1
 460 427 389 638 300 612 c 0
 201 583 230 433 283 409 c 1
 180 373 238 160 351 169 c 1
EndSplineSet
EndChar

StartChar: E
Encoding: 69 69 5
Width: 612
Flags: HW
LayerCount: 2
Back
Fore
SplineSet
592 12 m 1
 553 29 463 91 406 43 c 0
 350 -5 250 -6 206 31 c 1
 179 37 149 -43 56 32 c 1
 11 26 210 206 70 434 c 1
 134 477 157 696 83 766 c 1
 150 804 236 748 257 746 c 0
 282 744 347 834 449 742 c 0
 458 734 524 738 547 800 c 1
 557 778 561 722 548 700 c 0
 535 677 557 647 567 625 c 0
 576 603 555 546 511 549 c 0
 449 553 426 633 377 631 c 0
 329 629 270 566 279 524 c 0
 302 404 408 422 422 497 c 1
 451 466 472 436 439 392 c 1
 467 367 470 323 454 296 c 1
 409 358 299 343 311 260 c 0
 330 117 453 185 490 228 c 0
 527 271 557 198 550 177 c 0
 543 155 564 59 592 12 c 1
EndSplineSet
EndChar

StartChar: F
Encoding: 70 70 6
Width: 612
Flags: HW
LayerCount: 2
Back
Fore
SplineSet
454 271 m 1
 409 333 273 343 284 260 c 1
 249 177 301 79 344 55 c 1
 305 4 237 0 194 24 c 1
 142 0 98 -1 56 44 c 1
 144 161 130 352 70 434 c 1
 134 477 130 672 56 742 c 1
 113 828 236 748 257 746 c 0
 282 744 318 822 449 767 c 0
 460 762 474 732 503 778 c 1
 543 758 549 687 523 661 c 1
 533 639 558 560 517 557 c 0
 455 552 376 646 330 629 c 0
 284 612 273 553 284 511 c 0
 304 436 399 410 433 499 c 1
 488 455 436 388 439 392 c 1
 467 367 470 298 454 271 c 1
EndSplineSet
EndChar

StartChar: G
Encoding: 71 71 7
Width: 625
Flags: HW
LayerCount: 2
Back
Fore
SplineSet
253 291 m 0
 254 133 407 130 415 291 c 1
 406 307 385 331 372 341 c 1
 399 357 468 354 493 326 c 1
 489 323 608 379 652 324 c 1
 606 272 557 211 612 171 c 1
 609 128 577 107 625 50 c 1
 589 18 537 -17 459 67 c 1
 309 -77 78 47 94 236 c 0
 105 363 93 375 49 393 c 1
 120 415 83 585 83 585 c 1
 93 875 542 863 565 613 c 1
 576 583 578 562 598 543 c 0
 611 530 552 480 488 529 c 1
 447 517 387 487 387 525 c 0
 388 562 412 548 418 589 c 1
 390 699 243 684 258 489 c 0
 262 442 264 400 298 395 c 1
 235 354 252 354 253 291 c 0
EndSplineSet
EndChar

StartChar: H
Encoding: 72 72 8
Width: 686
Flags: HW
LayerCount: 2
Back
Fore
SplineSet
424 583 m 1
 436.666666667 607.666666667 442.166666667 629.333333333 440.5 648 c 128
 438.833333333 666.666666667 434.666666667 683.666666667 428 699 c 0
 418 721 416 739.833333333 422 755.5 c 128
 428 771.166666667 437.666666667 782.5 451 789.5 c 128
 464.333333333 796.5 479.333333333 799 496 797 c 128
 512.666666667 795 526.666666667 788 538 776 c 1
 544.666666667 778 554.333333333 780.333333333 567 783 c 128
 579.666666667 785.666666667 592.166666667 786.5 604.5 785.5 c 128
 616.833333333 784.5 627 780.666666667 635 774 c 128
 643 767.333333333 646 755 644 737 c 0
 642.666666667 725 640 713.833333333 636 703.5 c 128
 632 693.166666667 627.833333333 682.5 623.5 671.5 c 128
 619.166666667 660.5 615 648.666666667 611 636 c 128
 607 623.333333333 604.666666667 608 604 590 c 0
 604.666666667 561.333333333 606.333333333 533.666666667 609 507 c 0
 611.666666667 484.333333333 615.833333333 461.166666667 621.5 437.5 c 128
 627.166666667 413.833333333 635.666666667 394.666666667 647 380 c 1
 633 366.666666667 623.166666667 350.833333333 617.5 332.5 c 128
 611.833333333 314.166666667 609.166666667 294.5 609.5 273.5 c 128
 609.833333333 252.5 612.333333333 231.5 617 210.5 c 128
 621.666666667 189.5 627.5 170.166666667 634.5 152.5 c 128
 641.5 134.833333333 649 119.666666667 657 107 c 128
 665 94.3333333333 672.666666667 86 680 82 c 1
 662 58.6666666667 643 39.6666666667 623 25 c 128
 603 10.3333333333 582.333333333 1.16666666667 561 -2.5 c 128
 539.666666667 -6.16666666667 517.666666667 -3.33333333333 495 6 c 128
 472.333333333 15.3333333333 449.666666667 32.6666666667 427 58 c 1
 439.666666667 80 449.333333333 102.666666667 456 126 c 128
 462.666666667 149.333333333 466.5 172.666666667 467.5 196 c 128
 468.5 219.333333333 466.666666667 242 462 264 c 128
 457.333333333 286 450.666666667 307 442 327 c 1
 426 333.666666667 408.5 337.166666667 389.5 337.5 c 128
 370.5 337.833333333 352.666666667 335 336 329 c 128
 319.333333333 323 306 314.166666667 296 302.5 c 128
 286 290.833333333 282 276.666666667 284 260 c 1
 275.333333333 239.333333333 270 217.833333333 268 195.5 c 128
 266 173.166666667 266.666666667 152.333333333 270 133 c 128
 273.333333333 113.666666667 278.833333333 96.5 286.5 81.5 c 128
 294.166666667 66.5 303.333333333 56 314 50 c 1
 294.666666667 24.6666666667 275.166666667 11 255.5 9 c 128
 235.833333333 7 215.333333333 12 194 24 c 1
 168 12 146 9 128 15 c 128
 110 21 90.3333333333 35.3333333333 69 58 c 1
 91 87.3333333333 106.166666667 119.5 114.5 154.5 c 128
 122.833333333 189.5 126.333333333 224.333333333 125 259 c 128
 123.666666667 293.666666667 117.833333333 326.333333333 107.5 357 c 128
 97.1666666667 387.666666667 84.6666666667 413.333333333 70 434 c 1
 86 444.666666667 97.6666666667 463.5 105 490.5 c 128
 112.333333333 517.5 115.5 546.666666667 114.5 578 c 128
 113.5 609.333333333 108.166666667 640.166666667 98.5 670.5 c 128
 88.8333333333 700.833333333 74.6666666667 724.666666667 56 742 c 1
 70 763.333333333 82.6666666667 776.833333333 94 782.5 c 128
 105.333333333 788.166666667 115.5 790 124.5 788 c 128
 133.5 786 141.5 782.333333333 148.5 777 c 128
 155.5 771.666666667 161.666666667 768.666666667 167 768 c 0
 171 767.333333333 177.5 768.5 186.5 771.5 c 128
 200 776 200 776 216.5 781.5 c 128
 227.5 785.166666667 238.666666667 788.333333333 250 791 c 128
 261.333333333 793.666666667 271.333333333 794.666666667 280 794 c 128
 288.666666667 793.333333333 295.333333333 790.5 300 785.5 c 128
 304.666666667 780.5 305.666666667 771.666666667 303 759 c 1
 295 756.333333333 288.833333333 749.333333333 284.5 738 c 128
 280.166666667 726.666666667 277 712.833333333 275 696.5 c 128
 273 680.166666667 272 662.666666667 272 644 c 128
 272 625.333333333 272.666666667 607.333333333 274 590 c 128
 275.333333333 572.666666667 276.833333333 557 278.5 543 c 128
 280.166666667 529 282 518.333333333 284 511 c 0
 288.666666667 493.666666667 297.833333333 480.166666667 311.5 470.5 c 128
 325.166666667 460.833333333 340.333333333 455 357 453 c 128
 373.666666667 451 390.333333333 453.333333333 407 460 c 128
 423.666666667 466.666666667 437.666666667 478 449 494 c 1
 450.333333333 510.666666667 450.166666667 526 448.5 540 c 128
 446.833333333 554 438.666666667 568.333333333 424 583 c 1
EndSplineSet
EndChar

StartChar: M
Encoding: 77 77 13
Width: 594
Flags: HW
LayerCount: 2
Back
Fore
SplineSet
515.25 314.75 m 0
 515.960007222 314.64580872 524.376673889 327.562475387 540.5 353.5 c 0
 548.166666667 365.833333333 555.333333333 373 562 375 c 0
 567.333333333 376.333333333 573 372.666666667 579 364 c 128
 585 355.333333333 590.666666667 343 596 327 c 128
 601.333333333 311 605.5 292.5 608.5 271.5 c 128
 611.5 250.5 612.166666667 228.5 610.5 205.5 c 128
 608.833333333 182.5 604.5 159.333333333 597.5 136 c 0
 591.166666667 115.333333333 580 93.6666666667 564 71 c 0
 559.333333333 64.3333333333 560.333333333 56.5 567 47.5 c 0
 573 39.1666666667 581.333333333 32.6666666667 592 28 c 128
 602.666666667 23.3333333333 614 21.5 626 22.5 c 128
 638 23.5 648 29 656 39 c 1
 662 39 668.833333333 37.6666666667 676.5 35 c 128
 684.166666667 32.3333333333 691.666666667 29.5 699 26.5 c 128
 706.333333333 23.5 713.666666667 21.1666666667 721 19.5 c 128
 728.333333333 17.8333333333 735 18.6666666667 741 22 c 256
 747 25.3333333333 752.666666667 30 758 36 c 128
 763.333333333 42 768 47.6666666667 772 53 c 0
 776.666666667 59.6666666667 781 66.6666666667 785 74 c 1
 763.666666667 112 748 151.333333333 738 192 c 0
 734 209.333333333 731 227.666666667 729 247 c 128
 727 266.333333333 727 286.333333333 729 307 c 128
 731 327.666666667 735.5 348.333333333 742.5 369 c 128
 749.5 389.666666667 760 410 774 430 c 1
 761.333333333 440.666666667 749.5 459.666666667 738.5 487 c 128
 727.5 514.333333333 720.666666667 544.5 718 577.5 c 128
 715.333333333 610.5 718.333333333 643.166666667 727 675.5 c 128
 735.666666667 707.833333333 753.333333333 734.333333333 780 755 c 1
 754.666666667 773.666666667 729.5 784.833333333 704.5 788.5 c 128
 679.5 792.166666667 660.666666667 792 648 788 c 1
 644 792.666666667 637.5 795.666666667 628.5 797 c 128
 619.5 798.333333333 609.833333333 798.333333333 599.5 797 c 128
 589.166666667 795.666666667 579.166666667 792.666666667 569.5 788 c 128
 559.833333333 783.333333333 551.833333333 777.333333333 545.5 770 c 128
 539.166666667 762.666666667 535.5 753.833333333 534.5 743.5 c 0
 533.5 735.166666667 536.666666667 723.333333333 544 708 c 0
 549.333333333 696.666666667 554.333333333 688.166666667 559 682.5 c 128
 563.666666667 676.833333333 570.333333333 671.333333333 579 666 c 1
 568.333333333 658.666666667 557 644.833333333 545 624.5 c 128
 533 604.166666667 521.5 582.166666667 510.5 558.5 c 128
 499.5 534.833333333 481.666666667 509.5 457 482.5 c 128
 432.333333333 455.5 412.333333333 437.333333333 397 428 c 1
 389 431.333333333 375.833333333 448.333333333 357.5 479 c 128
 339.166666667 509.666666667 324.5 536.833333333 313.5 560.5 c 128
 302.5 584.166666667 291 606.166666667 279 626.5 c 128
 267 646.833333333 255.666666667 660.666666667 245 668 c 1
 253.666666667 673.333333333 260.333333333 678.833333333 265 684.5 c 128
 269.666666667 690.166666667 274.666666667 698.666666667 280 710 c 0
 287.333333333 725.333333333 290.5 737.166666667 289.5 745.5 c 0
 288.5 755.833333333 284.833333333 764.666666667 278.5 772 c 128
 272.166666667 779.333333333 264.166666667 785.333333333 254.5 790 c 128
 244.833333333 794.666666667 234.833333333 797.666666667 224.5 799 c 128
 214.166666667 800.333333333 204.5 800.333333333 195.5 799 c 128
 186.5 797.666666667 180 794.666666667 176 790 c 1
 163.333333333 794 144.5 794.166666667 119.5 790.5 c 128
 94.5 786.833333333 69.3333333333 775.666666667 44 757 c 1
 70.6666666667 736.333333333 88.3333333333 709.833333333 97 677.5 c 128
 105.666666667 645.166666667 108.666666667 612.5 106 579.5 c 128
 103.333333333 546.5 96.5 516.333333333 85.5 489 c 128
 74.5 461.666666667 62.6666666667 442.666666667 50 432 c 1
 64 412 74.5 391.666666667 81.5 371 c 128
 88.5 350.333333333 93 329.666666667 95 309 c 128
 97 288.333333333 97 268.333333333 95 249 c 128
 93 229.666666667 90 211.333333333 86 194 c 0
 76 153.333333333 60.3333333333 114 39 76 c 1
 43 68.6666666667 47.3333333333 61.6666666667 52 55 c 0
 56 49.6666666667 60.6666666667 44 66 38 c 128
 71.3333333333 32 77 27.3333333333 83 24 c 256
 89 20.6666666667 95.6666666667 19.8333333333 103 21.5 c 128
 110.333333333 23.1666666667 117.666666667 25.5 125 28.5 c 128
 132.333333333 31.5 139.833333333 34.3333333333 147.5 37 c 128
 155.166666667 39.6666666667 162 41 168 41 c 1
 176 31 186 25.5 198 24.5 c 128
 210 23.5 221.333333333 25.3333333333 232 30 c 128
 242.666666667 34.6666666667 251 41.1666666667 257 49.5 c 0
 263.666666667 58.5 264.666666667 66.3333333333 260 73 c 0
 244 95.6666666667 232.833333333 117.333333333 226.5 138 c 0
 219.5 161.333333333 215.166666667 184.5 213.5 207.5 c 128
 211.833333333 230.5 212.5 252.5 215.5 273.5 c 128
 218.5 294.5 222.666666667 313 228 329 c 128
 233.333333333 345 239 357.333333333 245 366 c 128
 251 374.666666667 256.666666667 378.333333333 262 377 c 0
 268.666666667 375 275.833333333 367.833333333 283.5 355.5 c 0
 298.56898478 325.995045215 306.402318113 310.995045215 307 310.5 c 0
 340.826762502 287.326187037 371.826762502 277.826187037 400 282 c 0
 434.666666667 287.333333333 473.083333333 298.25 515.25 314.75 c 0
EndSplineSet
EndChar

StartChar: N
Encoding: 78 78 14
Width: 594
Flags: HW
LayerCount: 2
Back
Fore
SplineSet
39 76 m 1
 60.3333333333 114 76 153.333333333 86 194 c 0
 90 211.333333333 93 229.666666667 95 249 c 128
 97 268.333333333 97 288.333333333 95 309 c 128
 93 329.666666667 88.5 350.333333333 81.5 371 c 128
 74.5 391.666666667 64 412 50 432 c 1
 62.6666666667 442.666666667 74.5 461.666666667 85.5 489 c 128
 96.5 516.333333333 103.333333333 546.5 106 579.5 c 128
 108.666666667 612.5 105.666666667 645.166666667 97 677.5 c 128
 88.3333333333 709.833333333 70.6666666667 736.333333333 44 757 c 1
 69.3333333333 775.666666667 94.5 786.833333333 119.5 790.5 c 128
 144.5 794.166666667 163.333333333 794 176 790 c 1
 180 794.666666667 186.5 797.666666667 195.5 799 c 128
 204.5 800.333333333 214.166666667 800.333333333 224.5 799 c 128
 234.833333333 797.666666667 244.833333333 794.666666667 254.5 790 c 128
 264.166666667 785.333333333 272.166666667 779.333333333 278.5 772 c 128
 284.833333333 764.666666667 288.5 755.833333333 289.5 745.5 c 128
 290.5 735.166666667 287.333333333 723.333333333 280 710 c 0
 274.666666667 698.666666667 269.666666667 690.166666667 265 684.5 c 128
 260.333333333 678.833333333 253.666666667 673.333333333 245 668 c 1
 255.666666667 660.666666667 267 646.833333333 279 626.5 c 128
 291 606.166666667 302.5 584.166666667 313.5 560.5 c 128
 324.5 536.833333333 334.833333333 513.833333333 344.5 491.5 c 128
 354.166666667 469.166666667 361.666666667 452.666666667 367 442 c 1
 377.666666667 452.666666667 386.166666667 465 392.5 479 c 128
 398.833333333 493 402.333333333 509.5 403 528.5 c 128
 403.666666667 547.5 400.5 569.166666667 393.5 593.5 c 128
 386.5 617.833333333 375 645.666666667 359 677 c 0
 347.666666667 699 345 717.666666667 351 733 c 128
 357 748.333333333 366.833333333 759.5 380.5 766.5 c 128
 394.166666667 773.5 409.666666667 776.166666667 427 774.5 c 128
 444.333333333 772.833333333 458.666666667 766 470 754 c 1
 476.666666667 756 485.666666667 758.166666667 497 760.5 c 128
 508.333333333 762.833333333 519.166666667 763.5 529.5 762.5 c 128
 539.833333333 761.5 548.333333333 757.5 555 750.5 c 128
 561.666666667 743.5 564 731 562 713 c 0
 560.666666667 701 556.833333333 691.333333333 550.5 684 c 128
 544.166666667 676.666666667 537.5 669.5 530.5 662.5 c 128
 523.5 655.5 516.833333333 647.166666667 510.5 637.5 c 128
 504.166666667 627.833333333 500.666666667 614 500 596 c 1
 494.666666667 583.333333333 491.5 568.666666667 490.5 552 c 128
 489.5 535.333333333 490.5 518 493.5 500 c 128
 496.5 482 501.5 463.833333333 508.5 445.5 c 128
 515.5 427.166666667 524.666666667 410 536 394 c 1
 516 364.666666667 502.833333333 333.333333333 496.5 300 c 128
 490.166666667 266.666666667 488.666666667 234.5 492 203.5 c 128
 495.333333333 172.5 502 144 512 118 c 128
 522 92 533 72 545 58 c 0
 548.333333333 54 547.5 47.8333333333 542.5 39.5 c 128
 537.5 31.1666666667 529.833333333 24 519.5 18 c 128
 509.166666667 12 496.833333333 9 482.5 9 c 128
 468.166666667 9 453 15 437 27 c 1
 427 23.6666666667 416.166666667 20.8333333333 404.5 18.5 c 128
 392.833333333 16.1666666667 382 15 372 15 c 128
 362 15 353.666666667 16.8333333333 347 20.5 c 128
 340.333333333 24.1666666667 337 30.6666666667 337 40 c 256
 337 49.3333333333 339.5 57.3333333333 344.5 64 c 128
 349.5 70.6666666667 354.666666667 76.6666666667 360 82 c 128
 365.333333333 87.3333333333 369.666666667 92.8333333333 373 98.5 c 128
 376.333333333 104.166666667 377 110.666666667 375 118 c 0
 373.666666667 122.666666667 370.833333333 132 366.5 146 c 128
 362.166666667 160 357 176.333333333 351 195 c 128
 345 213.666666667 338.166666667 233.166666667 330.5 253.5 c 128
 322.833333333 273.833333333 315 292.833333333 307 310.5 c 128
 299 328.166666667 291.166666667 343.166666667 283.5 355.5 c 128
 275.833333333 367.833333333 268.666666667 375 262 377 c 0
 256.666666667 378.333333333 251 374.666666667 245 366 c 128
 239 357.333333333 233.333333333 345 228 329 c 128
 222.666666667 313 218.5 294.5 215.5 273.5 c 128
 212.5 252.5 211.833333333 230.5 213.5 207.5 c 128
 215.166666667 184.5 219.5 161.333333333 226.5 138 c 128
 233.5 114.666666667 244.666666667 93 260 73 c 0
 264 65.6666666667 263 57.8333333333 257 49.5 c 128
 251 41.1666666667 242.666666667 34.6666666667 232 30 c 128
 221.333333333 25.3333333333 210 23.5 198 24.5 c 128
 186 25.5 176 31 168 41 c 1
 162 41 155.166666667 39.6666666667 147.5 37 c 128
 139.833333333 34.3333333333 132.333333333 31.5 125 28.5 c 128
 117.666666667 25.5 110.333333333 23.1666666667 103 21.5 c 128
 95.6666666667 19.8333333333 89 20.6666666667 83 24 c 256
 77 27.3333333333 71.3333333333 32 66 38 c 128
 60.6666666667 44 56 49.6666666667 52 55 c 0
 47.3333333333 61.6666666667 43 68.6666666667 39 76 c 1
EndSplineSet
EndChar

StartChar: O
Encoding: 79 79 15
Width: 625
Flags: HW
LayerCount: 2
Back
Fore
SplineSet
603 413 m 1
 583.666666667 399 569.833333333 383 561.5 365 c 128
 553.166666667 347 547.833333333 329 545.5 311 c 128
 543.166666667 293 542.5 275.666666667 543.5 259 c 128
 544.5 242.333333333 544.666666667 228.333333333 544 217 c 0
 540.666666667 174.333333333 531.333333333 138.333333333 516 109 c 128
 500.666666667 79.6666666667 481.833333333 56.5 459.5 39.5 c 128
 437.166666667 22.5 412.166666667 11.1666666667 384.5 5.5 c 128
 356.833333333 -0.166666666667 329 -1 301 3 c 128
 273 7 246 15.3333333333 220 28 c 128
 194 40.6666666667 171.166666667 57.1666666667 151.5 77.5 c 128
 131.833333333 97.8333333333 116.666666667 121.333333333 106 148 c 128
 95.3333333333 174.666666667 91.3333333333 204 94 236 c 256
 96.6666666667 268 97 293.666666667 95 313 c 128
 93 332.333333333 89.1666666667 347.666666667 83.5 359 c 128
 77.8333333333 370.333333333 70.5 378.833333333 61.5 384.5 c 128
 52.5 390.166666667 42.6666666667 395.333333333 32 400 c 1
 49.3333333333 405.333333333 61.8333333333 418 69.5 438 c 128
 77.1666666667 458 82 479 84 501 c 0
 86.6666666667 526.333333333 86.3333333333 554.333333333 83 585 c 1
 84.3333333333 621 91.5 652.666666667 104.5 680 c 128
 117.5 707.333333333 134.5 730 155.5 748 c 128
 176.5 766 200.166666667 779.333333333 226.5 788 c 128
 252.833333333 796.666666667 279.833333333 800.666666667 307.5 800 c 128
 335.166666667 799.333333333 362.333333333 793.833333333 389 783.5 c 128
 415.666666667 773.166666667 439.833333333 758.166666667 461.5 738.5 c 128
 483.166666667 718.833333333 501 694.333333333 515 665 c 128
 529 635.666666667 537.333333333 601.666666667 540 563 c 0
 540 555.666666667 539.833333333 545.166666667 539.5 531.5 c 128
 539.166666667 517.833333333 540.5 503.5 543.5 488.5 c 128
 546.5 473.5 552.5 459.166666667 561.5 445.5 c 128
 570.5 431.833333333 584.333333333 421 603 413 c 1
415 291 m 0
 415.666666667 305 416.166666667 317.833333333 416.5 329.5 c 128
 416.833333333 341.166666667 415.833333333 351.666666667 413.5 361 c 128
 411.166666667 370.333333333 406.833333333 378.666666667 400.5 386 c 128
 394.166666667 393.333333333 384.666666667 399.666666667 372 405 c 1
 380 409.666666667 386.5 414.166666667 391.5 418.5 c 128
 396.5 422.833333333 400.666666667 427.833333333 404 433.5 c 128
 407.333333333 439.166666667 409.666666667 446.333333333 411 455 c 128
 412.333333333 463.666666667 413 475 413 489 c 0
 413.666666667 525 409.833333333 554.666666667 401.5 578 c 128
 393.166666667 601.333333333 382.833333333 618.333333333 370.5 629 c 128
 358.166666667 639.666666667 345 644.5 331 643.5 c 128
 317 642.5 304.166666667 636 292.5 624 c 128
 280.833333333 612 271.5 594.666666667 264.5 572 c 128
 257.5 549.333333333 255.333333333 521.666666667 258 489 c 0
 260 465.666666667 263.666666667 446.5 269 431.5 c 128
 274.333333333 416.5 285.666666667 407.666666667 303 405 c 1
 287 395 275.5 386.333333333 268.5 379 c 128
 261.5 371.666666667 256.666666667 364.166666667 254 356.5 c 128
 251.333333333 348.833333333 250.5 340 251.5 330 c 128
 252.5 320 253 307 253 291 c 0
 253 264.333333333 256.833333333 242.166666667 264.5 224.5 c 128
 272.166666667 206.833333333 281.833333333 193.666666667 293.5 185 c 128
 305.166666667 176.333333333 317.833333333 171.833333333 331.5 171.5 c 128
 345.166666667 171.166666667 358 175.333333333 370 184 c 128
 382 192.666666667 392.166666667 206 400.5 224 c 128
 408.833333333 242 413.666666667 264.333333333 415 291 c 0
EndSplineSet
EndChar

StartChar: R
Encoding: 82 82 18
Width: 693
Flags: HW
LayerCount: 2
Back
Fore
SplineSet
549 275 m 5
 572.043610233 259.637593179 588.490217127 239.80108737 603 217 c 5
 589.627743389 163.510973553 614.535287667 131.207843918 657.5 126 c 132
 668.5 124.666666667 677 124.666666667 683 126 c 5
 660.43912925 86.5184761867 637.652179223 55.1920332632 607 30.5 c 132
 575.136616529 4.83227442632 528.013387516 -13.0825032507 485 14 c 5
 469.318672168 40.6582573134 436.85436374 76.9601998858 415 101 c 4
 399 118.333333333 382 136 364 154 c 5
 384 175.333333333 396.833333333 194.333333333 402.5 211 c 132
 419.459163474 260.879892569 387.944912456 287.956087136 351.5 299 c 132
 336.285076494 303.61058288 308.292226336 306.348528117 303 294 c 5
 258.414645107 264.276430072 228.962759643 214.381027442 240 138.5 c 132
 244.741931071 105.899223891 253.808623157 73.8588315812 266 51 c 132
 271.333333333 41 275 35 277 33 c 5
 226.536106057 -3.87746095922 166.363289326 28.2493136288 131 59 c 5
 101.877629114 33.1134481015 50.838546209 35.4645815164 12 51 c 5
 17.3333333333 53 24.6666666667 60.6666666667 34 74 c 132
 78.0099602966 136.871371852 112.370935258 254.221703869 88.5 358.5 c 132
 82.1666666667 386.166666667 70.3333333333 411.666666667 53 435 c 5
 96.5773944529 494.265256457 141.420962823 549.895917173 133.5 654 c 132
 131.166666667 684.666666667 123 721 109 763 c 5
 162.671036628 777.449894478 211.510238314 756.742605663 243 734 c 5
 278.855454247 769.855454247 330.120997136 790.991357346 400 786 c 4
 483.93787667 777.006656071 515.900058894 690.174896937 550 630.5 c 132
 565.554957791 603.278823866 583.477751317 572.481058203 610 560 c 5
 595.462847331 544.009132065 586.863819774 523.920561533 569 513.5 c 132
 565 511.166666667 560 510.666666667 554 512 c 5
 573.984396683 472.031206634 553.006886056 417.009837223 535.5 392 c 132
 528.5 382 521.666666667 376.666666667 515 376 c 5
 537.666666667 346 550.833333333 323.5 554.5 308.5 c 132
 558.166666667 293.5 556.333333333 282.333333333 549 275 c 5
437 507.5 m 132
 437 566.548485004 399.841285509 615.548598809 344.5 611 c 132
 289.475733818 606.477457574 237.925930542 572.815013349 236.5 511.5 c 132
 235.315739516 460.576799158 265.619700719 424.927318823 294.5 403.5 c 132
 337.495390713 371.600193985 379.01429435 401.213722577 409 430 c 4
 426.205607385 445.97663543 437 475.446046769 437 507.5 c 132
EndSplineSet
EndChar

StartChar: S
Encoding: 83 83 19
Width: 563
Flags: HW
LayerCount: 2
Back
Fore
SplineSet
542 286 m 0
 544.666666667 274 546.666666667 258.833333333 548 240.5 c 128
 549.333333333 222.166666667 548.833333333 202.333333333 546.5 181 c 128
 544.166666667 159.666666667 539.333333333 138.333333333 532 117 c 128
 524.666666667 95.6666666667 514 76.5 500 59.5 c 128
 486 42.5 468 28.6666666667 446 18 c 128
 424 7.33333333333 397 2.33333333333 365 3 c 0
 331 3.66666666667 302.333333333 8 279 16 c 128
 255.666666667 24 236.166666667 32.8333333333 220.5 42.5 c 128
 204.833333333 52.1666666667 192.5 60.6666666667 183.5 68 c 128
 174.5 75.3333333333 167 78.3333333333 161 77 c 0
 148.333333333 74.3333333333 136.333333333 69.8333333333 125 63.5 c 128
 113.666666667 57.1666666667 103.5 50.1666666667 94.5 42.5 c 128
 85.5 34.8333333333 78.1666666667 27.3333333333 72.5 20 c 128
 66.8333333333 12.6666666667 63.3333333333 6.66666666667 62 2 c 0
 60.6666666667 -2 57.8333333333 -0.666666666667 53.5 6 c 128
 49.1666666667 12.6666666667 45.5 22.3333333333 42.5 35 c 128
 39.5 47.6666666667 37.8333333333 61.5 37.5 76.5 c 128
 37.1666666667 91.5 40.3333333333 105.333333333 47 118 c 256
 53.6666666667 130.666666667 59 141.333333333 63 150 c 128
 67 158.666666667 69.1666666667 166.5 69.5 173.5 c 128
 69.8333333333 180.5 68.6666666667 186.833333333 66 192.5 c 128
 63.3333333333 198.166666667 59 204.666666667 53 212 c 0
 46.3333333333 219.333333333 45.1666666667 227.833333333 49.5 237.5 c 128
 53.8333333333 247.166666667 59.6666666667 256.666666667 67 266 c 0
 75.6666666667 276.666666667 86.6666666667 287.333333333 100 298 c 1
 101.333333333 292 105.333333333 283.5 112 272.5 c 128
 118.666666667 261.5 127 249.666666667 137 237 c 128
 147 224.333333333 158.333333333 211.833333333 171 199.5 c 128
 183.666666667 187.166666667 197.5 176.666666667 212.5 168 c 128
 227.5 159.333333333 243 153.5 259 150.5 c 128
 275 147.5 291.333333333 149 308 155 c 0
 327.333333333 162.333333333 342.166666667 171.5 352.5 182.5 c 128
 362.833333333 193.5 369 205.333333333 371 218 c 128
 373 230.666666667 371.333333333 243.333333333 366 256 c 128
 360.666666667 268.666666667 352.333333333 280.333333333 341 291 c 256
 329.666666667 301.666666667 318.5 309.166666667 307.5 313.5 c 128
 296.5 317.833333333 286.5 320.333333333 277.5 321 c 128
 268.5 321.666666667 260.666666667 320.833333333 254 318.5 c 128
 247.333333333 316.166666667 242.666666667 313.333333333 240 310 c 0
 236.666666667 306.666666667 233.833333333 307.666666667 231.5 313 c 128
 229.166666667 318.333333333 226.333333333 325.166666667 223 333.5 c 128
 219.666666667 341.833333333 215.5 350.666666667 210.5 360 c 128
 205.5 369.333333333 198.666666667 376 190 380 c 0
 182 384 170.666666667 392.166666667 156 404.5 c 128
 141.333333333 416.833333333 127.5 431.833333333 114.5 449.5 c 128
 101.5 467.166666667 91.3333333333 487.166666667 84 509.5 c 128
 76.6666666667 531.833333333 76.3333333333 555.666666667 83 581 c 0
 89.6666666667 605.666666667 96.1666666667 626.333333333 102.5 643 c 128
 108.833333333 659.666666667 116.333333333 674 125 686 c 128
 133.666666667 698 143.666666667 708.166666667 155 716.5 c 128
 166.333333333 724.833333333 180.333333333 733 197 741 c 0
 219 751.666666667 240 756.333333333 260 755 c 128
 280 753.666666667 298.666666667 750 316 744 c 128
 333.333333333 738 349 731.166666667 363 723.5 c 128
 377 715.833333333 389 711 399 709 c 256
 409 707 418.833333333 707.166666667 428.5 709.5 c 128
 438.166666667 711.833333333 447.166666667 715.666666667 455.5 721 c 128
 463.833333333 726.333333333 470.833333333 732.5 476.5 739.5 c 128
 482.166666667 746.5 485.666666667 754 487 762 c 1
 494.333333333 756 500.666666667 747.166666667 506 735.5 c 128
 511.333333333 723.833333333 514.666666667 708.333333333 516 689 c 0
 516.666666667 680.333333333 515 673.166666667 511 667.5 c 128
 507 661.833333333 502.666666667 657 498 653 c 128
 493.333333333 649 489.666666667 645.166666667 487 641.5 c 128
 484.333333333 637.833333333 485 634 489 630 c 0
 506.333333333 610.666666667 516 592 518 574 c 128
 520 556 519 540 515 526 c 0
 510.333333333 509.333333333 502 494 490 480 c 1
 489.333333333 482 487 487.166666667 483 495.5 c 128
 479 503.833333333 473.333333333 513.666666667 466 525 c 128
 458.666666667 536.333333333 449.833333333 547.833333333 439.5 559.5 c 128
 429.166666667 571.166666667 417.666666667 581 405 589 c 128
 392.333333333 597 378.666666667 602.166666667 364 604.5 c 128
 349.333333333 606.833333333 333.666666667 604.333333333 317 597 c 0
 311.666666667 595 306.166666667 588.5 300.5 577.5 c 128
 294.833333333 566.5 290.5 553.833333333 287.5 539.5 c 128
 284.5 525.166666667 283.666666667 510.5 285 495.5 c 128
 286.333333333 480.5 291.666666667 467.833333333 301 457.5 c 128
 310.333333333 447.166666667 324.5 440.5 343.5 437.5 c 128
 362.5 434.5 388.333333333 437.666666667 421 447 c 1
 417.666666667 433 421.166666667 421.333333333 431.5 412 c 128
 441.833333333 402.666666667 454.166666667 392.666666667 468.5 382 c 128
 482.833333333 371.333333333 497.166666667 358.833333333 511.5 344.5 c 128
 525.833333333 330.166666667 536 310.666666667 542 286 c 0
EndSplineSet
EndChar

StartChar: T
Encoding: 84 84 20
Width: 552
Flags: HW
LayerCount: 2
Back
Fore
SplineSet
52 797 m 1
 54.6666666667 791.666666667 59 785.5 65 778.5 c 128
 71 771.5 77.8333333333 765 85.5 759 c 128
 93.1666666667 753 101.666666667 748.166666667 111 744.5 c 128
 120.333333333 740.833333333 130 739 140 739 c 0
 165.333333333 740.333333333 187.666666667 743.166666667 207 747.5 c 128
 226.333333333 751.833333333 248 756.333333333 272 761 c 0
 284.666666667 763.666666667 300 762.166666667 318 756.5 c 128
 336 750.833333333 356 746.833333333 378 744.5 c 128
 400 742.166666667 423.166666667 743.833333333 447.5 749.5 c 128
 471.833333333 755.166666667 496.666666667 770.666666667 522 796 c 1
 530 784.666666667 535.666666667 772.833333333 539 760.5 c 128
 542.333333333 748.166666667 544.166666667 736.166666667 544.5 724.5 c 128
 544.833333333 712.833333333 544.166666667 702.166666667 542.5 692.5 c 128
 540.833333333 682.833333333 539.666666667 675 539 669 c 1
 543 663 545.666666667 653.833333333 547 641.5 c 128
 548.333333333 629.166666667 548.166666667 616 546.5 602 c 128
 544.833333333 588 541.333333333 574 536 560 c 128
 530.666666667 546 523 534 513 524 c 1
 505.666666667 532.666666667 496 542 484 552 c 128
 472 562 459.166666667 570.666666667 445.5 578 c 128
 431.833333333 585.333333333 418.166666667 590.666666667 404.5 594 c 128
 390.833333333 597.333333333 379.333333333 596.666666667 370 592 c 1
 370 563.333333333 371.333333333 535.666666667 374 509 c 0
 376.666666667 486.333333333 380.833333333 463.166666667 386.5 439.5 c 128
 392.166666667 415.833333333 400.666666667 396.666666667 412 382 c 1
 398 369.333333333 388.166666667 353.666666667 382.5 335 c 128
 376.833333333 316.333333333 374.166666667 296.5 374.5 275.5 c 128
 374.833333333 254.5 377.333333333 233.5 382 212.5 c 128
 386.666666667 191.5 392.5 172.166666667 399.5 154.5 c 128
 406.5 136.833333333 414 121.666666667 422 109 c 128
 430 96.3333333333 437.666666667 88 445 84 c 1
 427 60.6666666667 406.333333333 42.1666666667 383 28.5 c 128
 359.666666667 14.8333333333 335.333333333 6.83333333333 310 4.5 c 128
 284.666666667 2.16666666667 258.833333333 6.16666666667 232.5 16.5 c 128
 206.166666667 26.8333333333 181.666666667 44.6666666667 159 70 c 1
 203 128.666666667 225 184 225 236 c 128
 225 288 210 334.666666667 180 376 c 1
 197.333333333 410 208.833333333 445.666666667 214.5 483 c 128
 220.166666667 520.333333333 217.333333333 556.333333333 206 591 c 1
 197.333333333 592.333333333 186.833333333 592.5 174.5 591.5 c 128
 162.166666667 590.5 149.5 587.5 136.5 582.5 c 128
 123.5 577.5 110.833333333 570.333333333 98.5 561 c 128
 86.1666666667 551.666666667 75.6666666667 539.333333333 67 524 c 1
 57.6666666667 534 49.6666666667 545 43 557 c 128
 36.3333333333 569 31.5 581.166666667 28.5 593.5 c 128
 25.5 605.833333333 24.1666666667 618 24.5 630 c 128
 24.8333333333 642 27.3333333333 653 32 663 c 1
 22.6666666667 690.333333333 20 714 24 734 c 128
 28 754 37.3333333333 775 52 797 c 1
EndSplineSet
EndChar

StartChar: U
Encoding: 85 85 21
Width: 625
Flags: HW
LayerCount: 2
Back
Fore
SplineSet
542 563 m 0
 542 555.666666667 541.833333333 545.166666667 541.5 531.5 c 128
 541.166666667 517.833333333 542.5 503.5 545.5 488.5 c 128
 548.5 473.5 554.5 459.166666667 563.5 445.5 c 128
 572.5 431.833333333 586.333333333 421 605 413 c 1
 585.666666667 399 571.833333333 383 563.5 365 c 128
 555.166666667 347 549.833333333 329 547.5 311 c 128
 545.166666667 293 544.5 275.666666667 545.5 259 c 128
 546.5 242.333333333 546.666666667 228.333333333 546 217 c 0
 542.666666667 173.666666667 533.333333333 137.5 518 108.5 c 128
 502.666666667 79.5 483.666666667 56.3333333333 461 39 c 128
 438.333333333 21.6666666667 413.166666667 10.1666666667 385.5 4.5 c 128
 357.833333333 -1.16666666667 330 -2 302 2 c 128
 274 6 246.833333333 14.5 220.5 27.5 c 128
 194.166666667 40.5 171.166666667 57.1666666667 151.5 77.5 c 128
 131.833333333 97.8333333333 116.666666667 121.333333333 106 148 c 128
 95.3333333333 174.666666667 91.3333333333 204 94 236 c 256
 96.6666666667 268 97 293.666666667 95 313 c 128
 93 332.333333333 89.1666666667 347.666666667 83.5 359 c 128
 77.8333333333 370.333333333 70.5 378.833333333 61.5 384.5 c 128
 52.5 390.166666667 42.6666666667 395.333333333 32 400 c 1
 49.3333333333 405.333333333 61.8333333333 418 69.5 438 c 128
 77.1666666667 458 82 479 84 501 c 0
 86.6666666667 526.333333333 86.3333333333 554.333333333 83 585 c 1
 84.3333333333 618.333333333 82.8333333333 644.833333333 78.5 664.5 c 128
 74.1666666667 684.166666667 69.3333333333 699.333333333 64 710 c 0
 57.3333333333 722 49.6666666667 730.666666667 41 736 c 1
 40.3333333333 746.666666667 41.3333333333 755.666666667 44 763 c 0
 46.6666666667 769.666666667 51 775.666666667 57 781 c 128
 63 786.333333333 72.3333333333 788.666666667 85 788 c 1
 88.3333333333 779.333333333 95.1666666667 773.5 105.5 770.5 c 128
 115.833333333 767.5 126.333333333 766 137 766 c 128
 147.666666667 766 156.666666667 766.833333333 164 768.5 c 128
 171.333333333 770.166666667 173.333333333 771 170 771 c 1
 178 781.666666667 189 787.166666667 203 787.5 c 128
 217 787.833333333 230.333333333 785.333333333 243 780 c 128
 255.666666667 774.666666667 266.166666667 767.666666667 274.5 759 c 128
 282.833333333 750.333333333 285 742.333333333 281 735 c 0
 271.666666667 715.666666667 264.666666667 693.833333333 260 669.5 c 128
 255.333333333 645.166666667 252.166666667 621.5 250.5 598.5 c 128
 248.833333333 575.5 248.833333333 554.166666667 250.5 534.5 c 128
 252.166666667 514.833333333 254.666666667 499.666666667 258 489 c 0
 260 465.666666667 263.666666667 446.5 269 431.5 c 128
 274.333333333 416.5 285.666666667 407.666666667 303 405 c 1
 287 395 275.5 386.333333333 268.5 379 c 128
 261.5 371.666666667 256.666666667 364.166666667 254 356.5 c 128
 251.333333333 348.833333333 250.5 340 251.5 330 c 128
 252.5 320 253 307 253 291 c 0
 253 264.333333333 256.833333333 242.166666667 264.5 224.5 c 128
 272.166666667 206.833333333 281.833333333 193.666666667 293.5 185 c 128
 305.166666667 176.333333333 317.833333333 171.833333333 331.5 171.5 c 128
 345.166666667 171.166666667 358 175.333333333 370 184 c 128
 382 192.666666667 392.166666667 206 400.5 224 c 128
 408.833333333 242 413.666666667 264.333333333 415 291 c 0
 415.666666667 305 416.166666667 317.833333333 416.5 329.5 c 128
 416.833333333 341.166666667 415.833333333 351.666666667 413.5 361 c 128
 411.166666667 370.333333333 406.833333333 378.666666667 400.5 386 c 128
 394.166666667 393.333333333 384.666666667 399.666666667 372 405 c 1
 380 409.666666667 386.5 414.166666667 391.5 418.5 c 128
 396.5 422.833333333 400.666666667 427.833333333 404 433.5 c 128
 407.333333333 439.166666667 409.666666667 446.333333333 411 455 c 128
 412.333333333 463.666666667 413 475 413 489 c 0
 414.333333333 544.333333333 414.833333333 587.833333333 414.5 619.5 c 128
 414.166666667 651.166666667 409.333333333 675.666666667 400 693 c 1
 398.666666667 703 395.833333333 711 391.5 717 c 128
 387.166666667 723 382.833333333 728.5 378.5 733.5 c 128
 374.166666667 738.5 370.333333333 743.666666667 367 749 c 128
 363.666666667 754.333333333 362 761.666666667 362 771 c 256
 362 780.333333333 365.333333333 786.833333333 372 790.5 c 128
 378.666666667 794.166666667 387 796 397 796 c 128
 407 796 417.833333333 794.666666667 429.5 792 c 128
 441.166666667 789.333333333 452 786.666666667 462 784 c 1
 478 796 493.333333333 801.666666667 508 801 c 128
 522.666666667 800.333333333 535.333333333 797 546 791 c 128
 556.666666667 785 564.5 778 569.5 770 c 128
 574.5 762 575.333333333 756.333333333 572 753 c 0
 567.333333333 748.333333333 563.5 744.666666667 560.5 742 c 128
 557.5 739.333333333 555 736.5 553 733.5 c 128
 551 730.5 549.166666667 727 547.5 723 c 128
 545.833333333 719 543.666666667 713.333333333 541 706 c 1
 541.666666667 694.666666667 541.666666667 687.833333333 541 685.5 c 128
 540.333333333 683.166666667 539.666666667 679.333333333 539 674 c 128
 538.333333333 668.666666667 538 658.333333333 538 643 c 128
 538 627.666666667 539.333333333 601 542 563 c 0
EndSplineSet
EndChar

StartChar: V
Encoding: 86 86 22
Width: 794
Flags: HW
LayerCount: 2
Back
Fore
SplineSet
241 216 m 0
 230.333333333 242 221 263.333333333 213 280 c 128
 205 296.666666667 196.666666667 310.5 188 321.5 c 128
 179.333333333 332.5 169.666666667 342 159 350 c 128
 148.333333333 358 135 367 119 377 c 1
 135 386.333333333 144.5 400.333333333 147.5 419 c 128
 150.5 437.666666667 150.333333333 456.666666667 147 476 c 0
 143.666666667 498 137 521.666666667 127 547 c 1
 119.666666667 579.666666667 110.333333333 606.333333333 99 627 c 128
 87.6666666667 647.666666667 76.3333333333 663.666666667 65 675 c 0
 52.3333333333 688.333333333 38.6666666667 698.333333333 24 705 c 1
 20 717.666666667 18 729.333333333 18 740 c 0
 18 749.333333333 20 758 24 766 c 128
 28 774 36.3333333333 779.333333333 49 782 c 1
 54.3333333333 774 61.8333333333 768.666666667 71.5 766 c 128
 81.1666666667 763.333333333 90.3333333333 761.833333333 99 761.5 c 128
 107.666666667 761.166666667 114.666666667 761.333333333 120 762 c 128
 125.333333333 762.666666667 126.333333333 762.666666667 123 762 c 1
 128.333333333 774 138.666666667 782.166666667 154 786.5 c 128
 169.333333333 790.833333333 184.833333333 792.5 200.5 791.5 c 128
 216.166666667 790.5 230 787.333333333 242 782 c 128
 254 776.666666667 259 770 257 762 c 0
 255 751.333333333 254.333333333 736 255 716 c 128
 255.666666667 696 257.833333333 673.5 261.5 648.5 c 128
 265.166666667 623.5 270.166666667 597.666666667 276.5 571 c 128
 282.833333333 544.333333333 290.666666667 519.166666667 300 495.5 c 128
 309.333333333 471.833333333 319.833333333 451.166666667 331.5 433.5 c 128
 343.166666667 415.833333333 356.333333333 403.666666667 371 397 c 1
 363.666666667 385 358.5 376.166666667 355.5 370.5 c 128
 352.5 364.833333333 350.833333333 359.5 350.5 354.5 c 128
 350.166666667 349.5 351.166666667 343.5 353.5 336.5 c 128
 355.833333333 329.5 359 318.333333333 363 303 c 0
 383 226.333333333 404.333333333 185 427 179 c 128
 449.666666667 173 472 209 494 287 c 0
 498 301 501.5 313.5 504.5 324.5 c 128
 507.5 335.5 508.833333333 345.833333333 508.5 355.5 c 128
 508.166666667 365.166666667 505.833333333 374.166666667 501.5 382.5 c 128
 497.166666667 390.833333333 489.333333333 399 478 407 c 1
 500 410.333333333 516.833333333 418.666666667 528.5 432 c 128
 540.166666667 445.333333333 548.666666667 463.5 554 486.5 c 128
 559.333333333 509.5 562.666666667 537.333333333 564 570 c 128
 565.333333333 602.666666667 567.333333333 640 570 682 c 0
 570.666666667 692 569.166666667 702.333333333 565.5 713 c 128
 561.833333333 723.666666667 558 734 554 744 c 128
 550 754 547 763.666666667 545 773 c 128
 543 782.333333333 544 791.333333333 548 800 c 1
 560.666666667 799.333333333 573 797.666666667 585 795 c 0
 595.666666667 793 606.833333333 790.333333333 618.5 787 c 128
 630.166666667 783.666666667 640.666666667 779.333333333 650 774 c 1
 668 782 686.5 786.166666667 705.5 786.5 c 128
 724.5 786.833333333 741.166666667 785.333333333 755.5 782 c 128
 769.833333333 778.666666667 780.833333333 774.5 788.5 769.5 c 128
 796.166666667 764.5 798 760.666666667 794 758 c 0
 788 754.666666667 783 749 779 741 c 128
 775 733 771.166666667 724.333333333 767.5 715 c 128
 763.833333333 705.666666667 760.166666667 696.166666667 756.5 686.5 c 128
 752.833333333 676.833333333 749 668.666666667 745 662 c 1
 743 648.666666667 739.5 633.5 734.5 616.5 c 128
 729.5 599.5 724.333333333 581.833333333 719 563.5 c 128
 713.666666667 545.166666667 709.166666667 527 705.5 509 c 128
 701.833333333 491 700.333333333 474.333333333 701 459 c 128
 701.666666667 443.666666667 705 430.166666667 711 418.5 c 128
 717 406.833333333 727.666666667 398.333333333 743 393 c 1
 721 383.666666667 702.833333333 370.833333333 688.5 354.5 c 128
 674.166666667 338.166666667 662.666666667 321 654 303 c 128
 645.333333333 285 638.5 267.333333333 633.5 250 c 128
 628.5 232.666666667 624.333333333 218.666666667 621 208 c 0
 617.666666667 198 612.666666667 184.666666667 606 168 c 128
 599.333333333 151.333333333 593.666666667 133.333333333 589 114 c 128
 584.333333333 94.6666666667 581.666666667 75 581 55 c 128
 580.333333333 35 584.666666667 16.6666666667 594 0 c 1
 576.666666667 -12 557.666666667 -17.5 537 -16.5 c 128
 516.333333333 -15.5 497 -11.6666666667 479 -5 c 0
 457.666666667 2.33333333333 436.333333333 12.6666666667 415 26 c 1
 395 11.3333333333 378.833333333 1.83333333333 366.5 -2.5 c 128
 354.166666667 -6.83333333333 343.5 -8.83333333333 334.5 -8.5 c 128
 325.5 -8.16666666667 316.833333333 -6.66666666667 308.5 -4 c 128
 300.166666667 -1.33333333333 290.666666667 0 280 0 c 1
 290.666666667 14.6666666667 297.666666667 26.6666666667 301 36 c 128
 304.333333333 45.3333333333 304.166666667 56.8333333333 300.5 70.5 c 128
 296.833333333 84.1666666667 290 102 280 124 c 128
 270 146 257 176.666666667 241 216 c 0
EndSplineSet
EndChar

StartChar: W
Encoding: 87 87 23
Width: 1172
Flags: HW
LayerCount: 2
Back
Fore
SplineSet
409 433 m 1
 401.666666667 421 395.5 410 390.5 400 c 128
 385.5 390 381.833333333 379.833333333 379.5 369.5 c 128
 377.166666667 359.166666667 376.5 348.333333333 377.5 337 c 128
 378.5 325.666666667 381.666666667 312.666666667 387 298 c 0
 395.666666667 274 402.833333333 255.5 408.5 242.5 c 128
 414.166666667 229.5 419.333333333 222.333333333 424 221 c 128
 428.666666667 219.666666667 433.833333333 224.333333333 439.5 235 c 128
 445.166666667 245.666666667 452.333333333 262.333333333 461 285 c 0
 466.333333333 298.333333333 471.833333333 310.333333333 477.5 321 c 128
 483.166666667 331.666666667 487.333333333 341.666666667 490 351 c 128
 492.666666667 360.333333333 492.666666667 369 490 377 c 128
 487.333333333 385 480.333333333 393 469 401 c 1
 480.333333333 403 489.166666667 407.333333333 495.5 414 c 128
 501.833333333 420.666666667 506.666666667 428.5 510 437.5 c 128
 513.333333333 446.5 516.333333333 455.833333333 519 465.5 c 128
 521.666666667 475.166666667 525 483.666666667 529 491 c 1
 527.666666667 495 525.833333333 501 523.5 509 c 128
 521.166666667 517 518.666666667 523.333333333 516 528 c 0
 504 550.666666667 499 568.5 501 581.5 c 128
 503 594.5 509.5 603.666666667 520.5 609 c 128
 531.5 614.333333333 545.666666667 616.333333333 563 615 c 128
 580.333333333 613.666666667 598.666666667 609.666666667 618 603 c 1
 624.666666667 607.666666667 635 612 649 616 c 128
 663 620 676.333333333 621.166666667 689 619.5 c 128
 701.666666667 617.833333333 712 612.833333333 720 604.5 c 128
 728 596.166666667 729.333333333 582.666666667 724 564 c 0
 720.666666667 552 718.166666667 542.833333333 716.5 536.5 c 128
 714.833333333 530.166666667 714 524.666666667 714 520 c 128
 714 515.333333333 714.666666667 510.5 716 505.5 c 128
 717.333333333 500.5 719.333333333 493.333333333 722 484 c 0
 726.666666667 468.666666667 731 456.666666667 735 448 c 128
 739 439.333333333 743.5 432.166666667 748.5 426.5 c 128
 753.5 420.833333333 759 416.333333333 765 413 c 128
 771 409.666666667 778.333333333 406 787 402 c 1
 779.666666667 390 774.5 381.166666667 771.5 375.5 c 128
 768.5 369.833333333 766.833333333 364.5 766.5 359.5 c 128
 766.166666667 354.5 767.166666667 348.5 769.5 341.5 c 128
 771.833333333 334.5 775 323.333333333 779 308 c 0
 789 270 798.333333333 243.666666667 807 229 c 128
 815.666666667 214.333333333 823.5 208.166666667 830.5 210.5 c 128
 837.5 212.833333333 843.833333333 222.333333333 849.5 239 c 128
 855.166666667 255.666666667 860 276.333333333 864 301 c 0
 866 311.666666667 868.333333333 322.5 871 333.5 c 128
 873.666666667 344.5 875 355.166666667 875 365.5 c 128
 875 375.833333333 873.166666667 385.666666667 869.5 395 c 128
 865.833333333 404.333333333 858.333333333 413 847 421 c 1
 863.666666667 435.666666667 874.666666667 447.5 880 456.5 c 128
 885.333333333 465.5 887.333333333 476.5 886 489.5 c 128
 884.666666667 502.5 881.333333333 520 876 542 c 128
 870.666666667 564 866 596 862 638 c 0
 859.333333333 648 855.833333333 659 851.5 671 c 128
 847.166666667 683 843 695 839 707 c 128
 835 719 832.166666667 730.666666667 830.5 742 c 128
 828.833333333 753.333333333 829.333333333 763.666666667 832 773 c 1
 843.333333333 771.666666667 855 769.666666667 867 767 c 0
 877 765 887.833333333 762.333333333 899.5 759 c 128
 911.166666667 755.666666667 922 752.333333333 932 749 c 1
 948.666666667 759.666666667 967.5 767 988.5 771 c 128
 1009.5 775 1029 776.833333333 1047 776.5 c 128
 1065 776.166666667 1079.5 774.333333333 1090.5 771 c 128
 1101.5 767.666666667 1105 764.666666667 1101 762 c 0
 1091 753.333333333 1084.5 742 1081.5 728 c 128
 1078.5 714 1073.66666667 699.666666667 1067 685 c 1
 1067 671 1065.33333333 655.166666667 1062 637.5 c 128
 1058.66666667 619.833333333 1054.83333333 601.5 1050.5 582.5 c 128
 1046.16666667 563.5 1042.5 544.333333333 1039.5 525 c 128
 1036.5 505.666666667 1035.33333333 487.833333333 1036 471.5 c 128
 1036.66666667 455.166666667 1040 441 1046 429 c 128
 1052 417 1062.66666667 408.333333333 1078 403 c 1
 1056 393.666666667 1040 379 1030 359 c 128
 1020 339 1013.33333333 317.833333333 1010 295.5 c 128
 1006.66666667 273.166666667 1004.66666667 251.5 1004 230.5 c 128
 1003.33333333 209.5 1001.33333333 193.666666667 998 183 c 0
 994.666666667 173 992 161.166666667 990 147.5 c 128
 988 133.833333333 987.333333333 119.166666667 988 103.5 c 128
 988.666666667 87.8333333333 991 71.6666666667 995 55 c 128
 999 38.3333333333 1005.66666667 21.6666666667 1015 5 c 1
 997.666666667 -7 977.666666667 -13.1666666667 955 -13.5 c 128
 932.333333333 -13.8333333333 910.666666667 -11.3333333333 890 -6 c 0
 866 -0.666666666667 841.333333333 7.66666666667 816 19 c 1
 796 4.33333333333 779.833333333 -4.66666666667 767.5 -8 c 128
 755.166666667 -11.3333333333 744.5 -12 735.5 -10 c 128
 726.5 -8 717.833333333 -5 709.5 -1 c 128
 701.166666667 3 691.666666667 5 681 5 c 1
 691.666666667 19.6666666667 698.666666667 31.6666666667 702 41 c 128
 705.333333333 50.3333333333 705.166666667 61.8333333333 701.5 75.5 c 128
 697.833333333 89.1666666667 691 107 681 129 c 128
 671 151 658 181.666666667 642 221 c 0
 640 225.666666667 638.166666667 231.833333333 636.5 239.5 c 128
 634.833333333 247.166666667 633 255 631 263 c 128
 629 271 627.166666667 278.5 625.5 285.5 c 128
 623.833333333 292.5 622.333333333 297.666666667 621 301 c 1
 619 295 617 287.333333333 615 278 c 128
 612 264 612 264 609 250 c 128
 607 240.666666667 605.333333333 232 604 224 c 128
 602.666666667 216 601.333333333 210 600 206 c 0
 596.666666667 196 591.666666667 182.666666667 585 166 c 128
 578.333333333 149.333333333 572.666666667 131.333333333 568 112 c 128
 563.333333333 92.6666666667 560.666666667 73 560 53 c 128
 559.333333333 33 563.666666667 14.6666666667 573 -2 c 1
 555.666666667 -14 536.666666667 -19.5 516 -18.5 c 128
 495.333333333 -17.5 476 -13.6666666667 458 -7 c 0
 436.666666667 0.333333333333 415.333333333 10.6666666667 394 24 c 1
 374 9.33333333333 359 -0.166666666667 349 -4.5 c 128
 339 -8.83333333333 330.666666667 -10.8333333333 324 -10.5 c 128
 317.333333333 -10.1666666667 311 -8.66666666667 305 -6 c 128
 299 -3.33333333333 290.666666667 -2 280 -2 c 1
 283.333333333 16.6666666667 286.666666667 31.1666666667 290 41.5 c 128
 293.333333333 51.8333333333 294.666666667 63.1666666667 294 75.5 c 128
 293.333333333 87.8333333333 289.833333333 104.166666667 283.5 124.5 c 128
 277.166666667 144.833333333 266 174.666666667 250 214 c 0
 239.333333333 240 232 263.166666667 228 283.5 c 128
 224 303.833333333 220.166666667 322 216.5 338 c 128
 212.833333333 354 207.666666667 368 201 380 c 128
 194.333333333 392 183 403 167 413 c 1
 179 419.666666667 188.833333333 432.166666667 196.5 450.5 c 128
 204.166666667 468.833333333 209.833333333 489 213.5 511 c 128
 217.166666667 533 218.666666667 554.666666667 218 576 c 128
 217.333333333 597.333333333 214.666666667 615 210 629 c 0
 206.666666667 638.333333333 203.5 647.833333333 200.5 657.5 c 128
 197.5 667.166666667 193.5 677.333333333 188.5 688 c 128
 183.5 698.666666667 177 709.833333333 169 721.5 c 128
 161 733.166666667 150.333333333 745.666666667 137 759 c 1
 149 761.666666667 160.166666667 764.166666667 170.5 766.5 c 128
 180.833333333 768.833333333 191.166666667 770 201.5 770 c 128
 211.833333333 770 222.5 768.166666667 233.5 764.5 c 128
 244.5 760.833333333 256.666666667 754.666666667 270 746 c 1
 278.666666667 752.666666667 288.833333333 758.166666667 300.5 762.5 c 128
 312.166666667 766.833333333 324.333333333 769.666666667 337 771 c 128
 349.666666667 772.333333333 362.166666667 772.333333333 374.5 771 c 128
 386.833333333 769.666666667 398.333333333 767 409 763 c 1
 397.666666667 751.666666667 388.166666667 736.666666667 380.5 718 c 128
 372.833333333 699.333333333 366.833333333 678.666666667 362.5 656 c 128
 358.166666667 633.333333333 355.833333333 610.166666667 355.5 586.5 c 128
 355.166666667 562.833333333 356.833333333 540.5 360.5 519.5 c 128
 364.166666667 498.5 370 480.333333333 378 465 c 128
 386 449.666666667 396.333333333 439 409 433 c 1
EndSplineSet
EndChar

StartChar: X
Encoding: 88 88 24
Width: 794
Flags: HW
LayerCount: 2
Back
Fore
SplineSet
777 772 m 1
 651.666666667 684.666666667 602.666666667 607.333333333 630 540 c 1
 594.666666667 519.333333333 567.166666667 498.166666667 547.5 476.5 c 128
 527.833333333 454.833333333 517.166666667 432.166666667 515.5 408.5 c 128
 513.833333333 384.833333333 521.5 359.5 538.5 332.5 c 128
 555.5 305.5 583 276.333333333 621 245 c 1
 613 209 621.666666667 174.833333333 647 142.5 c 128
 672.333333333 110.166666667 712.666666667 74 768 34 c 1
 742.666666667 29.3333333333 716.5 28 689.5 30 c 128
 662.5 32 638.333333333 39 617 51 c 1
 567.666666667 18.3333333333 526 4.66666666667 492 10 c 1
 522.666666667 130.666666667 493 204.666666667 403 232 c 1
 313.666666667 176 292.666666667 98.6666666667 340 0 c 1
 268 2.66666666667 213 16.6666666667 175 42 c 1
 159.666666667 32 145.5 24 132.5 18 c 128
 119.5 12 106.666666667 7.66666666667 94 5 c 128
 81.3333333333 2.33333333333 68.6666666667 1.66666666667 56 3 c 128
 43.3333333333 4.33333333333 29.6666666667 7.66666666667 15 13 c 1
 148.333333333 125 197.333333333 199.666666667 162 237 c 1
 195.333333333 264.333333333 222.666666667 291.833333333 244 319.5 c 128
 265.333333333 347.166666667 278 373.5 282 398.5 c 128
 286 423.5 280.333333333 446.666666667 265 468 c 128
 249.666666667 489.333333333 222.333333333 507 183 521 c 1
 191 536.333333333 193.666666667 553.166666667 191 571.5 c 128
 188.333333333 589.833333333 181.333333333 608.166666667 170 626.5 c 128
 158.666666667 644.833333333 143.5 662.333333333 124.5 679 c 128
 105.5 695.666666667 83.6666666667 710 59 722 c 1
 80.3333333333 733.333333333 104.5 741 131.5 745 c 128
 158.5 749 187 745.333333333 217 734 c 1
 244.333333333 769.333333333 281.333333333 785 328 781 c 1
 297.333333333 729.666666667 288.666666667 691.666666667 302 667 c 0
 313.333333333 645.666666667 327.166666667 628.666666667 343.5 616 c 128
 359.833333333 603.333333333 380 592.333333333 404 583 c 1
 424 592.333333333 440.5 605.166666667 453.5 621.5 c 128
 466.5 637.833333333 478 655.333333333 488 674 c 1
 488 715 l 2
 488 726.333333333 488.333333333 738 489 750 c 128
 489.666666667 762 490.666666667 772 492 780 c 1
 498.666666667 783.333333333 507.5 782.833333333 518.5 778.5 c 128
 529.5 774.166666667 540.333333333 769 551 763 c 0
 563 755.666666667 576 747 590 737 c 1
 640.666666667 762.333333333 703 774 777 772 c 1
EndSplineSet
EndChar

StartChar: Y
Encoding: 89 89 25
Width: 625
Flags: HW
LayerCount: 2
Back
Fore
SplineSet
253 627 m 1
 253 617 254.5 603.5 257.5 586.5 c 128
 260.5 569.5 264.833333333 552.666666667 270.5 536 c 128
 276.166666667 519.333333333 282.666666667 504.5 290 491.5 c 128
 297.333333333 478.5 305.333333333 471.333333333 314 470 c 1
 322 474.666666667 330.666666667 483.666666667 340 497 c 128
 349.333333333 510.333333333 357.666666667 525.333333333 365 542 c 128
 372.333333333 558.666666667 377.833333333 575.666666667 381.5 593 c 128
 385.166666667 610.333333333 385 625.666666667 381 639 c 1
 395 650.333333333 405.666666667 662 413 674 c 128
 420.333333333 686 425.5 697.833333333 428.5 709.5 c 128
 431.5 721.166666667 432.666666667 732.166666667 432 742.5 c 128
 431.333333333 752.833333333 430 762 428 770 c 0
 425.333333333 778.666666667 427.333333333 785 434 789 c 128
 440.666666667 793 449.166666667 795 459.5 795 c 128
 469.833333333 795 481.166666667 793.333333333 493.5 790 c 128
 505.833333333 786.666666667 516.666666667 782 526 776 c 1
 542 776.666666667 556 772.5 568 763.5 c 128
 580 754.5 589.666666667 744.5 597 733.5 c 128
 604.333333333 722.5 609 711.833333333 611 701.5 c 128
 613 691.166666667 612 685 608 683 c 0
 590 673 575 665.166666667 563 659.5 c 128
 551 653.833333333 542 647.5 536 640.5 c 128
 530 633.5 527 624.5 527 613.5 c 128
 527 602.5 529.666666667 586 535 564 c 1
 521 559.333333333 506.166666667 550.666666667 490.5 538 c 128
 474.833333333 525.333333333 460.666666667 509.833333333 448 491.5 c 128
 435.333333333 473.166666667 425.5 452.333333333 418.5 429 c 128
 411.5 405.666666667 410.333333333 380.666666667 415 354 c 1
 401 340.666666667 391.333333333 325.166666667 386 307.5 c 128
 380.666666667 289.833333333 378.166666667 271 378.5 251 c 128
 378.833333333 231 381.5 211.166666667 386.5 191.5 c 128
 391.5 171.833333333 397.666666667 153.666666667 405 137 c 128
 412.333333333 120.333333333 420.166666667 106 428.5 94 c 128
 436.833333333 82 444.666666667 74 452 70 c 1
 432.666666667 44.6666666667 411 27.3333333333 387 18 c 128
 363 8.66666666667 337 10 309 22 c 1
 281.666666667 10 255.333333333 8.33333333333 230 17 c 128
 204.666666667 25.6666666667 181.333333333 41.6666666667 160 65 c 1
 182 94.3333333333 198.333333333 122 209 148 c 128
 219.666666667 174 225.666666667 198.833333333 227 222.5 c 128
 228.333333333 246.166666667 225 268.833333333 217 290.5 c 128
 209 312.166666667 197.666666667 333.333333333 183 354 c 1
 191.666666667 370.666666667 195 390.5 193 413.5 c 128
 191 436.5 185.833333333 458.666666667 177.5 480 c 128
 169.166666667 501.333333333 158.166666667 520.166666667 144.5 536.5 c 128
 130.833333333 552.833333333 116.666666667 563 102 567 c 1
 100 597 94.5 620.666666667 85.5 638 c 128
 76.5 655.333333333 67 668.666666667 57 678 c 0
 45 688.666666667 32 696 18 700 c 1
 14 709.333333333 12.3333333333 718 13 726 c 0
 13.6666666667 733.333333333 16 740.333333333 20 747 c 128
 24 753.666666667 32.3333333333 758.666666667 45 762 c 1
 50.3333333333 754.666666667 58.5 751.166666667 69.5 751.5 c 128
 80.5 751.833333333 91 753.666666667 101 757 c 128
 111 760.333333333 119.333333333 763.666666667 126 767 c 128
 132.666666667 770.333333333 134.333333333 771.666666667 131 771 c 1
 135.666666667 783 144.666666667 791.166666667 158 795.5 c 128
 171.333333333 799.833333333 185 801.333333333 199 800 c 128
 213 798.666666667 225 795.166666667 235 789.5 c 128
 245 783.833333333 249.333333333 777 248 769 c 0
 244.666666667 747.666666667 241.833333333 729.833333333 239.5 715.5 c 128
 237.166666667 701.166666667 236 689 236 679 c 128
 236 669 237.166666667 660 239.5 652 c 128
 241.833333333 644 246.333333333 635.666666667 253 627 c 1
EndSplineSet
EndChar

StartChar: a
Encoding: 97 97 26
Width: 2095
Flags: HW
LayerCount: 2
Back
Fore
SplineSet
2095 531 m 1
 2087 520.333333333 2077.83333333 510.833333333 2067.5 502.5 c 128
 2057.16666667 494.166666667 2046 488.333333333 2034 485 c 1
 2028 456.333333333 2017.66666667 436.666666667 2003 426 c 1
 1973 481.333333333 1936.66666667 497.666666667 1894 475 c 1
 1882 423.666666667 1901.33333333 388.666666667 1952 370 c 1
 1924 345.333333333 1899.33333333 331 1878 327 c 1
 1874 309.666666667 1868.66666667 296 1862 286 c 128
 1855.33333333 276 1845 267.666666667 1831 261 c 1
 1839.66666667 348.333333333 1831.33333333 392.333333333 1806 393 c 1
 1808.66666667 414.333333333 1809 433.666666667 1807 451 c 128
 1805 468.333333333 1800.33333333 482.333333333 1793 493 c 128
 1785.66666667 503.666666667 1775.5 510.166666667 1762.5 512.5 c 128
 1749.5 514.833333333 1733.33333333 511.666666667 1714 503 c 1
 1712 511 1707.33333333 517.833333333 1700 523.5 c 128
 1692.66666667 529.166666667 1683.66666667 533.333333333 1673 536 c 128
 1662.33333333 538.666666667 1650.66666667 539.666666667 1638 539 c 128
 1625.33333333 538.333333333 1612.66666667 536 1600 532 c 1
 1603.33333333 543.333333333 1609.33333333 554.333333333 1618 565 c 128
 1626.66666667 575.666666667 1638 584.333333333 1652 591 c 1
 1650 614.333333333 1658 633 1676 647 c 1
 1682.66666667 617.666666667 1693 601 1707 597 c 0
 1718.33333333 593 1729.16666667 591.5 1739.5 592.5 c 128
 1749.83333333 593.5 1761 596.666666667 1773 602 c 1
 1777 612 1778.5 622.333333333 1777.5 633 c 128
 1776.5 643.666666667 1774.33333333 654 1771 664 c 1
 1766.33333333 669.333333333 1761.66666667 674.333333333 1757 679 c 0
 1753 683 1749 687.333333333 1745 692 c 128
 1741 696.666666667 1738 700.666666667 1736 704 c 1
 1737.33333333 707.333333333 1740.66666667 710.166666667 1746 712.5 c 128
 1751.33333333 714.833333333 1757 716.666666667 1763 718 c 0
 1770.33333333 720 1778 721.333333333 1786 722 c 1
 1795.33333333 749.333333333 1813.66666667 775.333333333 1841 800 c 1
 1825.66666667 724.666666667 1835 679.666666667 1869 665 c 1
 1857.66666667 625.666666667 1859 596.666666667 1873 578 c 128
 1887 559.333333333 1918.66666667 552 1968 556 c 1
 1977.33333333 540 1992.33333333 530.666666667 2013 528 c 128
 2033.66666667 525.333333333 2061 526.333333333 2095 531 c 1
1729 304 m 0
 1741.66666667 278 1747 254.833333333 1745 234.5 c 128
 1743 214.166666667 1736.33333333 196.666666667 1725 182 c 128
 1713.66666667 167.333333333 1698.83333333 156.333333333 1680.5 149 c 128
 1662.16666667 141.666666667 1643.5 138.333333333 1624.5 139 c 128
 1605.5 139.666666667 1587.5 144.5 1570.5 153.5 c 128
 1553.5 162.5 1540.33333333 176.666666667 1531 196 c 0
 1523.66666667 210 1517.16666667 221 1511.5 229 c 128
 1505.83333333 237 1500.33333333 242.833333333 1495 246.5 c 128
 1489.66666667 250.166666667 1484.5 252 1479.5 252 c 128
 1474.5 252 1469 251.666666667 1463 251 c 1
 1469 257.666666667 1471 266.166666667 1469 276.5 c 128
 1467 286.833333333 1463.66666667 297 1459 307 c 0
 1453 319 1445.66666667 331 1437 343 c 0
 1425 364.333333333 1419.66666667 384.666666667 1421 404 c 128
 1422.33333333 423.333333333 1428 440.666666667 1438 456 c 128
 1448 471.333333333 1461.33333333 483.666666667 1478 493 c 128
 1494.66666667 502.333333333 1512.33333333 507.5 1531 508.5 c 128
 1549.66666667 509.5 1568.5 505.666666667 1587.5 497 c 128
 1606.5 488.333333333 1623.33333333 473.333333333 1638 452 c 0
 1640 448.666666667 1643.33333333 443.166666667 1648 435.5 c 128
 1652.66666667 427.833333333 1658 420.666666667 1664 414 c 128
 1670 407.333333333 1676.33333333 402.5 1683 399.5 c 128
 1689.66666667 396.5 1696.66666667 397.666666667 1704 403 c 1
 1699.33333333 391.666666667 1697.5 381.166666667 1698.5 371.5 c 128
 1699.5 361.833333333 1701.83333333 352.833333333 1705.5 344.5 c 128
 1709.16666667 336.166666667 1713.33333333 328.666666667 1718 322 c 128
 1722.66666667 315.333333333 1726.33333333 309.333333333 1729 304 c 0
1449 201 m 256
 1453 193 1457.16666667 181.333333333 1461.5 166 c 128
 1465.83333333 150.666666667 1467.33333333 134.666666667 1466 118 c 128
 1464.66666667 101.333333333 1459.16666667 85.8333333333 1449.5 71.5 c 128
 1439.83333333 57.1666666667 1423.33333333 47 1400 41 c 0
 1383.33333333 37 1368.83333333 35.5 1356.5 36.5 c 128
 1344.16666667 37.5 1333.66666667 39.1666666667 1325 41.5 c 128
 1316.33333333 43.8333333333 1309.33333333 46.1666666667 1304 48.5 c 128
 1298.66666667 50.8333333333 1294.66666667 51.3333333333 1292 50 c 0
 1286 47.3333333333 1280.66666667 43.6666666667 1276 39 c 128
 1271.33333333 34.3333333333 1267.33333333 29.6666666667 1264 25 c 128
 1260.66666667 20.3333333333 1258.16666667 15.8333333333 1256.5 11.5 c 128
 1254.83333333 7.16666666667 1254 3.66666666667 1254 1 c 0
 1254 -1 1252.5 -0.666666666667 1249.5 2 c 128
 1246.5 4.66666666667 1243.33333333 8.83333333333 1240 14.5 c 128
 1236.66666667 20.1666666667 1234 26.6666666667 1232 34 c 128
 1230 41.3333333333 1229.66666667 48.6666666667 1231 56 c 0
 1234.33333333 69.3333333333 1235.66666667 79 1235 85 c 128
 1234.33333333 91 1230 96.6666666667 1222 102 c 0
 1218 104.666666667 1216.33333333 108.5 1217 113.5 c 128
 1217.66666667 118.5 1219.33333333 123.666666667 1222 129 c 0
 1224.66666667 135 1228.66666667 141.666666667 1234 149 c 1
 1236 145 1241.5 139.166666667 1250.5 131.5 c 128
 1259.5 123.833333333 1269.83333333 117 1281.5 111 c 128
 1293.16666667 105 1305.33333333 101 1318 99 c 128
 1330.66666667 97 1342.33333333 99.6666666667 1353 107 c 0
 1370.33333333 119.666666667 1377.83333333 132.666666667 1375.5 146 c 128
 1373.16666667 159.333333333 1365 169.666666667 1351 177 c 0
 1337.66666667 184.333333333 1326.33333333 186.5 1317 183.5 c 128
 1307.66666667 180.5 1302 177 1300 173 c 0
 1298.66666667 171 1297.16666667 171.166666667 1295.5 173.5 c 128
 1293.83333333 175.833333333 1291.66666667 178.833333333 1289 182.5 c 128
 1286.33333333 186.166666667 1283.16666667 189.833333333 1279.5 193.5 c 128
 1275.83333333 197.166666667 1271.66666667 199.666666667 1267 201 c 0
 1262.33333333 201.666666667 1255.66666667 204 1247 208 c 128
 1238.33333333 212 1229.66666667 217.5 1221 224.5 c 128
 1212.33333333 231.5 1204.83333333 239.833333333 1198.5 249.5 c 128
 1192.16666667 259.166666667 1189 270.666666667 1189 284 c 0
 1189 296.666666667 1189.5 307.5 1190.5 316.5 c 128
 1191.5 325.5 1193.16666667 333.333333333 1195.5 340 c 128
 1197.83333333 346.666666667 1201.16666667 352.833333333 1205.5 358.5 c 128
 1209.83333333 364.166666667 1215.66666667 370 1223 376 c 0
 1232.33333333 384 1242 389 1252 391 c 128
 1262 393 1271.5 393.666666667 1280.5 393 c 128
 1289.5 392.333333333 1297.83333333 391.166666667 1305.5 389.5 c 128
 1313.16666667 387.833333333 1319.66666667 387 1325 387 c 0
 1335 387.666666667 1343.66666667 392 1351 400 c 128
 1358.33333333 408 1361.66666667 416 1361 424 c 1
 1365.66666667 422 1369.83333333 418.5 1373.5 413.5 c 128
 1377.16666667 408.5 1380.66666667 401.333333333 1384 392 c 0
 1385.33333333 388 1385.5 384.333333333 1384.5 381 c 128
 1383.5 377.666666667 1382.16666667 374.833333333 1380.5 372.5 c 128
 1378.83333333 370.166666667 1377.66666667 368 1377 366 c 128
 1376.33333333 364 1377 362 1379 360 c 0
 1390.33333333 352.666666667 1397.5 344.833333333 1400.5 336.5 c 128
 1403.5 328.166666667 1405 320.333333333 1405 313 c 0
 1404.33333333 305 1402.33333333 296.666666667 1399 288 c 1
 1398.33333333 289.333333333 1394.66666667 293.5 1388 300.5 c 128
 1381.33333333 307.5 1373.33333333 314 1364 320 c 128
 1354.66666667 326 1344.33333333 330 1333 332 c 128
 1321.66666667 334 1310.66666667 330.666666667 1300 322 c 0
 1296.66666667 319.333333333 1294.33333333 312.333333333 1293 301 c 128
 1291.66666667 289.666666667 1293.16666667 279 1297.5 269 c 128
 1301.83333333 259 1309.5 252.166666667 1320.5 248.5 c 128
 1331.5 244.833333333 1348 249.666666667 1370 263 c 1
 1371.33333333 255.666666667 1375.33333333 249.833333333 1382 245.5 c 128
 1388.66666667 241.166666667 1396.33333333 237 1405 233 c 128
 1413.66666667 229 1422.16666667 224.666666667 1430.5 220 c 128
 1438.83333333 215.333333333 1445 209 1449 201 c 256
915 324 m 0
 915.666666667 301.333333333 913.833333333 282.5 909.5 267.5 c 128
 905.166666667 252.5 901.166666667 239.833333333 897.5 229.5 c 128
 893.833333333 219.166666667 891.833333333 210.5 891.5 203.5 c 128
 891.166666667 196.5 895 189.333333333 903 182 c 1
 889 176 878.666666667 168.333333333 872 159 c 128
 865.333333333 149.666666667 859.5 139 854.5 127 c 128
 849.5 115 844 102.333333333 838 89 c 128
 832 75.6666666667 822.666666667 62.3333333333 810 49 c 0
 806 45 799.166666667 40.6666666667 789.5 36 c 128
 779.833333333 31.3333333333 769 28.5 757 27.5 c 128
 745 26.5 732.666666667 28.1666666667 720 32.5 c 128
 707.333333333 36.8333333333 696 46 686 60 c 0
 674.666666667 76 664 87 654 93 c 128
 644 99 634.5 102.5 625.5 103.5 c 128
 616.5 104.5 607.833333333 104 599.5 102 c 128
 591.166666667 100 583 99 575 99 c 1
 581.666666667 105 590.833333333 115 602.5 129 c 128
 614.166666667 143 624.666666667 158.666666667 634 176 c 128
 643.333333333 193.333333333 649.833333333 211.666666667 653.5 231 c 128
 657.166666667 250.333333333 654.333333333 268.333333333 645 285 c 1
 651.666666667 289.666666667 659.666666667 295 669 301 c 128
 678.333333333 307 687 315.333333333 695 326 c 128
 703 336.666666667 709.833333333 350.166666667 715.5 366.5 c 128
 721.166666667 382.833333333 723.666666667 404 723 430 c 1
 731 428.666666667 737.666666667 426.166666667 743 422.5 c 128
 748.333333333 418.833333333 753 414.833333333 757 410.5 c 128
 761 406.166666667 765 402.333333333 769 399 c 128
 773 395.666666667 778.333333333 393.666666667 785 393 c 0
 794.333333333 393 806.166666667 393.333333333 820.5 394 c 128
 834.833333333 394.666666667 848.833333333 393.333333333 862.5 390 c 128
 876.166666667 386.666666667 888.166666667 380 898.5 370 c 128
 908.833333333 360 914.333333333 344.666666667 915 324 c 0
692 434 m 1
 691.333333333 431.333333333 690 428 688 424 c 128
 686 420 683.5 416 680.5 412 c 128
 677.5 408 674.5 404.166666667 671.5 400.5 c 128
 668.5 396.833333333 665.666666667 394.333333333 663 393 c 0
 657 390.333333333 653.333333333 385.333333333 652 378 c 128
 650.666666667 370.666666667 649.333333333 364 648 358 c 0
 647.333333333 354.666666667 645.333333333 351.5 642 348.5 c 128
 638.666666667 345.5 634.833333333 343 630.5 341 c 128
 626.166666667 339 621.5 338 616.5 338 c 128
 611.5 338 607 339.666666667 603 343 c 0
 597 347.666666667 593 353.5 591 360.5 c 128
 589 367.5 587.5 374.5 586.5 381.5 c 128
 585.5 388.5 584.166666667 395.166666667 582.5 401.5 c 128
 580.833333333 407.833333333 577.666666667 412.666666667 573 416 c 0
 567.666666667 419.333333333 561.5 421.333333333 554.5 422 c 128
 547.5 422.666666667 540.5 422.333333333 533.5 421 c 128
 526.5 419.666666667 520 417.166666667 514 413.5 c 128
 508 409.833333333 504 405.666666667 502 401 c 0
 495.333333333 387 493 375.166666667 495 365.5 c 128
 497 355.833333333 501 348.666666667 507 344 c 128
 513 339.333333333 520.166666667 337.333333333 528.5 338 c 128
 536.833333333 338.666666667 544.666666667 342.333333333 552 349 c 1
 553.333333333 337.666666667 553 327.833333333 551 319.5 c 128
 549 311.166666667 541.333333333 305 528 301 c 1
 530 291.666666667 528.5 283 523.5 275 c 128
 518.5 267 512.333333333 261.333333333 505 258 c 1
 505 267.333333333 502.333333333 275.833333333 497 283.5 c 128
 491.666666667 291.166666667 485.5 296.666666667 478.5 300 c 128
 471.5 303.333333333 464 304 456 302 c 128
 448 300 441.666666667 294.333333333 437 285 c 0
 428.333333333 269 425.5 256.333333333 428.5 247 c 128
 431.5 237.666666667 437.166666667 230.666666667 445.5 226 c 128
 453.833333333 221.333333333 463.166666667 218.666666667 473.5 218 c 128
 483.833333333 217.333333333 492.666666667 217.666666667 500 219 c 0
 506.666666667 221 511.5 220.333333333 514.5 217 c 128
 517.5 213.666666667 519 209.666666667 519 205 c 128
 519 200.333333333 518 195.666666667 516 191 c 128
 514 186.333333333 511.666666667 183 509 181 c 0
 507 179 504.333333333 175.166666667 501 169.5 c 128
 497.666666667 163.833333333 494.333333333 157.166666667 491 149.5 c 128
 487.666666667 141.833333333 484.833333333 133.666666667 482.5 125 c 128
 480.166666667 116.333333333 478.666666667 108.666666667 478 102 c 1
 475.333333333 106.666666667 472.166666667 112.833333333 468.5 120.5 c 128
 464.833333333 128.166666667 460.333333333 135.833333333 455 143.5 c 128
 449.666666667 151.166666667 443.5 157.5 436.5 162.5 c 128
 429.5 167.5 421.333333333 169.666666667 412 169 c 256
 402.666666667 168.333333333 393.333333333 169.5 384 172.5 c 128
 374.666666667 175.5 366 179.666666667 358 185 c 128
 350 190.333333333 343.333333333 196.333333333 338 203 c 128
 332.666666667 209.666666667 329 216.333333333 327 223 c 0
 325 225.666666667 321.333333333 226.833333333 316 226.5 c 128
 310.666666667 226.166666667 305 226.666666667 299 228 c 128
 293 229.333333333 287.166666667 232.666666667 281.5 238 c 128
 275.833333333 243.333333333 271 253.333333333 267 268 c 1
 263.666666667 270 264.166666667 272.166666667 268.5 274.5 c 128
 272.833333333 276.833333333 279.333333333 280.166666667 288 284.5 c 128
 296.666666667 288.833333333 306.5 294.5 317.5 301.5 c 128
 328.5 308.5 339.166666667 317.5 349.5 328.5 c 128
 359.833333333 339.5 368.833333333 353 376.5 369 c 128
 384.166666667 385 389 404 391 426 c 1
 400.333333333 426 411.5 430.333333333 424.5 439 c 128
 437.5 447.666666667 449.5 458.666666667 460.5 472 c 128
 471.5 485.333333333 480.333333333 499.666666667 487 515 c 128
 493.666666667 530.333333333 496 544.333333333 494 557 c 1
 503.333333333 555.666666667 511.666666667 552.333333333 519 547 c 128
 526.333333333 541.666666667 532.5 535.666666667 537.5 529 c 128
 542.5 522.333333333 546.666666667 516 550 510 c 128
 553.333333333 504 556 500 558 498 c 0
 560.666666667 496 565.5 495 572.5 495 c 128
 579.5 495 587 493.666666667 595 491 c 128
 603 488.333333333 610.666666667 483.333333333 618 476 c 128
 625.333333333 468.666666667 631 456.666666667 635 440 c 0
 635 438.666666667 636.666666667 436.666666667 640 434 c 128
 643.333333333 431.333333333 647.666666667 429.333333333 653 428 c 128
 658.333333333 426.666666667 664.333333333 426.166666667 671 426.5 c 128
 677.666666667 426.833333333 684.666666667 429.333333333 692 434 c 1
397 661 m 0
 406.333333333 650.333333333 410.666666667 638 410 624 c 128
 409.333333333 610 407.166666667 595.833333333 403.5 581.5 c 128
 399.833333333 567.166666667 396.166666667 553.333333333 392.5 540 c 128
 388.833333333 526.666666667 388.666666667 515.666666667 392 507 c 1
 382 506.333333333 374.166666667 505.333333333 368.5 504 c 128
 362.833333333 502.666666667 358.333333333 504.666666667 355 510 c 1
 353 504 349.166666667 498.333333333 343.5 493 c 128
 337.833333333 487.666666667 331.666666667 483.333333333 325 480 c 128
 318.333333333 476.666666667 312 474.5 306 473.5 c 128
 300 472.5 295.666666667 473 293 475 c 1
 290.333333333 456.333333333 287 443.833333333 283 437.5 c 128
 279 431.166666667 274.333333333 428 269 428 c 1
 271.666666667 419.333333333 272.333333333 410.333333333 271 401 c 0
 270.333333333 396.333333333 269.333333333 392 268 388 c 1
 258.666666667 382.666666667 252.666666667 376.833333333 250 370.5 c 128
 247.333333333 364.166666667 246.666666667 358 248 352 c 128
 249.333333333 346 251.666666667 340.833333333 255 336.5 c 128
 258.333333333 332.166666667 261.333333333 329 264 327 c 1
 238 319.666666667 217.666666667 317.333333333 203 320 c 128
 188.333333333 322.666666667 177.333333333 326.666666667 170 332 c 0
 161.333333333 338.666666667 156 347.333333333 154 358 c 0
 155.333333333 364 156.5 372.166666667 157.5 382.5 c 128
 158.5 392.833333333 159.333333333 403 160 413 c 0
 160.666666667 425 161 437.333333333 161 450 c 1
 183 450.666666667 197.5 455 204.5 463 c 128
 211.5 471 214.5 479.666666667 213.5 489 c 128
 212.5 498.333333333 209 506.5 203 513.5 c 128
 197 520.5 192.333333333 523.333333333 189 522 c 0
 171.666666667 525.333333333 156.5 523.333333333 143.5 516 c 128
 130.5 508.666666667 119.833333333 499.666666667 111.5 489 c 128
 103.166666667 478.333333333 97 467.833333333 93 457.5 c 128
 89 447.166666667 87 440.666666667 87 438 c 1
 76.3333333333 439.333333333 68.3333333333 443.333333333 63 450 c 128
 57.6666666667 456.666666667 53.6666666667 463.666666667 51 471 c 0
 48.3333333333 479 46.3333333333 488.333333333 45 499 c 1
 37 499.666666667 30 502 24 506 c 128
 18 510 13.3333333333 514.666666667 10 520 c 0
 6 526 2.66666666667 532.333333333 0 539 c 1
 4 537 13.5 538.166666667 28.5 542.5 c 128
 43.5 546.833333333 59.5 554 76.5 564 c 128
 93.5 574 109.166666667 587 123.5 603 c 128
 137.833333333 619 146.666666667 638 150 660 c 1
 164 662 177.166666667 664.5 189.5 667.5 c 128
 201.833333333 670.5 213.5 675.166666667 224.5 681.5 c 128
 235.5 687.833333333 246 696.833333333 256 708.5 c 128
 266 720.166666667 276 736 286 756 c 1
 294 751.333333333 300.333333333 745.666666667 305 739 c 128
 309.666666667 732.333333333 313.333333333 726 316 720 c 0
 318.666666667 712.666666667 321 705.333333333 323 698 c 1
 334.333333333 698.666666667 344.333333333 697 353 693 c 128
 361.666666667 689 369.333333333 684.666666667 376 680 c 0
 383.333333333 674 390.333333333 667.666666667 397 661 c 0
805 329 m 0
 792.333333333 330.333333333 781.833333333 327.333333333 773.5 320 c 128
 765.166666667 312.666666667 759.166666667 303.833333333 755.5 293.5 c 128
 751.833333333 283.166666667 750.166666667 272.666666667 750.5 262 c 128
 750.833333333 251.333333333 753.666666667 243.333333333 759 238 c 1
 745.666666667 238.666666667 734.833333333 233.333333333 726.5 222 c 128
 718.166666667 210.666666667 713.333333333 197.666666667 712 183 c 128
 710.666666667 168.333333333 712.666666667 154.166666667 718 140.5 c 128
 723.333333333 126.833333333 732.666666667 118 746 114 c 1
 760 114.666666667 772.166666667 119.666666667 782.5 129 c 128
 792.833333333 138.333333333 800.166666667 149.166666667 804.5 161.5 c 128
 808.833333333 173.833333333 810.166666667 186 808.5 198 c 128
 806.833333333 210 801 219.666666667 791 227 c 1
 804.333333333 223.666666667 814.833333333 226.833333333 822.5 236.5 c 128
 830.166666667 246.166666667 834.5 257.666666667 835.5 271 c 128
 836.5 284.333333333 834.5 297 829.5 309 c 128
 824.5 321 816.333333333 327.666666667 805 329 c 0
330 587 m 0
 330 600.333333333 325.333333333 611 316 619 c 128
 306.666666667 627 295.333333333 632.333333333 282 635 c 0
 266.666666667 638.333333333 253.5 634.166666667 242.5 622.5 c 128
 231.5 610.833333333 225.333333333 598.333333333 224 585 c 0
 222.666666667 569 225 556.333333333 231 547 c 128
 237 537.666666667 251.666666667 532.666666667 275 532 c 0
 281.666666667 532 288.166666667 533.5 294.5 536.5 c 128
 300.833333333 539.5 306.666666667 543.666666667 312 549 c 128
 317.333333333 554.333333333 321.666666667 560.333333333 325 567 c 128
 328.333333333 573.666666667 330 580.333333333 330 587 c 0
1657 305 m 0
 1649.66666667 317 1643 326.666666667 1637 334 c 128
 1631 341.333333333 1621 343.333333333 1607 340 c 1
 1611 348.666666667 1612.83333333 355.833333333 1612.5 361.5 c 128
 1612.16666667 367.166666667 1608.33333333 375.666666667 1601 387 c 0
 1585.66666667 409.666666667 1570.83333333 423.833333333 1556.5 429.5 c 128
 1542.16666667 435.166666667 1530.83333333 434.833333333 1522.5 428.5 c 128
 1514.16666667 422.166666667 1510.5 411.166666667 1511.5 395.5 c 128
 1512.5 379.833333333 1520.66666667 362.333333333 1536 343 c 0
 1543.33333333 333.666666667 1550.33333333 326.833333333 1557 322.5 c 128
 1563.66666667 318.166666667 1571 317.666666667 1579 321 c 1
 1575 312.333333333 1572.5 305.5 1571.5 300.5 c 128
 1570.5 295.5 1570.5 291 1571.5 287 c 128
 1572.5 283 1574.5 279 1577.5 275 c 128
 1580.5 271 1584.33333333 265.666666667 1589 259 c 0
 1600.33333333 242.333333333 1612.33333333 232.166666667 1625 228.5 c 128
 1637.66666667 224.833333333 1648 225.666666667 1656 231 c 128
 1664 236.333333333 1668.83333333 245.666666667 1670.5 259 c 128
 1672.16666667 272.333333333 1667.66666667 287.666666667 1657 305 c 0
EndSplineSet
EndChar

StartChar: C
Encoding: 67 67 27
Width: 625
Flags: HW
LayerCount: 2
Back
Fore
SplineSet
254 523 m 0
 258 476 272 431 306 425 c 1
 242 384 252 354 253 291 c 0
 254 133 419 82 427 243 c 1
 449 296 535 237 534 214 c 0
 534 191 583 107 625 70 c 1
 583 75 489 96 450 33 c 1
 313 -58 65 45 81 231 c 0
 92 358 75 384 32 419 c 1
 103 441 83 585 83 585 c 1
 90 776 277 840 409 774 c 1
 455 769 453 771 522 788 c 1
 534 739 548 710 502 673 c 1
 500 614 542 557 485 574 c 1
 436 600 389 622 361 637 c 0
 313 666 244 645 254 523 c 0
EndSplineSet
EndChar

StartChar: A
Encoding: 65 65 28
Width: 794
Flags: HW
LayerCount: 2
Back
Fore
SplineSet
601 430 m 1
 547 322 646 101 756 21 c 1
 705 13 652 16 608 40 c 1
 559 7 526 5 492 10 c 1
 523 131 473 257 383 285 c 1
 294 229 268 110 315 12 c 1
 243 0 214 -14 166 23 c 1
 105 0 74 -14 48 25 c 1
 136 97 212 316 151 427 c 1
 230 474 255 611 251 705 c 0
 249 743 185 790 238 790 c 1
 280 813 320 792 380 771 c 1
 415 800 422 788 488 800 c 1
 514 790 518 764 476 716 c 1
 450 618 544 478 601 430 c 1
 601 430 l 1
367 567 m 1
 324 505 256 386 391 386 c 1
 490 399 438 524 367 567 c 1
EndSplineSet
EndChar

StartChar: B
Encoding: 66 66 29
Width: 595
Flags: HW
LayerCount: 2
Back
Fore
SplineSet
588 251 m 1
 513 201 604 165 521 80 c 0
 467 23 419 -4 354 2 c 0
 258 10 219 38 219 38 c 1
 85 -65 39 76 15 72 c 1
 85 125 91 335 19 370 c 1
 101 472 55 643 50 668 c 0
 46 692 21 715 19 730 c 1
 49 746 117 724 128 735 c 0
 152 759 255 824 361 769 c 0
 442 727 461 665 459 625 c 0
 455 564 511 555 511 555 c 1
 490 533 473 525 479 505 c 0
 484 488 471 429 423 392 c 1
 451 384 478 383 512 359 c 0
 550 332 523 265 588 251 c 1
 588 251 l 1
306 549 m 1
 362 623 312 670 223 652 c 1
 161 629 151 594 178 518 c 1
 182 472 218 454 278 462 c 1
 345 483 330 541 306 549 c 1
 306 549 l 1
352 266 m 1
 379 328 354 369 252 363 c 1
 204 341 175 326 190 236 c 1
 193 172 236 156 325 162 c 1
 379 179 409 240 352 266 c 1
EndSplineSet
EndChar
